<svg version="1" xmlns="http://www.w3.org/2000/svg" width="933.333" height="933.333" viewBox="0 0 700.000000 700.000000"><path d="M324 10.6c-1.9.2-7.8.9-13 1.5-113 12.7-213.6 85-262.7 188.6-21.3 45.1-31.6 91.7-31.6 142.8 0 47.7 8.3 88.7 27 132.4C66 528 103 574.9 149.5 610c18.2 13.7 33.1 22.8 54 33C237 659.5 269 669.1 308 674.6c17.8 2.6 66.2 2.6 84 0 39-5.5 71-15.1 104.5-31.6 53-25.9 96.2-63.5 129.7-112.5 24.9-36.5 42-77 50.8-120.5 8.5-42.6 8.7-88.8.4-131C658 180.1 594.9 95.5 505.5 48.3 470 29.5 436 18.7 393 12.4c-10-1.5-60.5-2.8-69-1.8zm66 12.9c36.9 4.9 72.2 15.6 103.5 31.2 100.7 50.4 167.7 148.6 177.6 260.4 1.5 16.7.6 57.4-1.5 71.4-11.3 74.8-44 139.4-95.5 188.8-89.6 85.8-218.5 113.2-334.2 71.2-72.4-26.3-133.6-78.3-171-145.3C48.8 465.3 37 430 30.4 386.5c-2.1-14-3-54.7-1.5-71.4C42.3 163.7 160.1 41.8 310.5 23.6c7.2-.9 15-1.8 17.5-2 9.7-.9 51 .4 62 1.9z"/><path d="M386 321.5v8.5H180v23h206v21h113v-61H386v8.5zM522 343v24h29v-48h-29v24z"/></svg>